# xmcd
#
# Track frame offsets:
#	150
#	243342
#	286112
#
# Disc length: 4327 seconds
#
# Revision: 0
# Processed by: cddbd v1.4PL0 Copyright (c) Steve Scherf et al.
# Submitted via: EasyCDDAExtractor 4.6.9.1
#
DISCID=1f10e503
DTITLE=Grateful dead - Grateful new year(CD2)
DYEAR=1900
DGENRE=Country
TTITLE0=medley:estimated profit/space
TTITLE1=crytical envelopment
TTITLE2=knocking on heavens door
EXTD=
EXTT0=
EXTT1=
EXTT2=
PLAYORDER=
